<mxfile host="app.diagrams.net" modified="2023-07-13T02:51:12.511Z" agent="Mozilla/5.0 (Windows NT 10.0; Win64; x64) AppleWebKit/537.36 (KHTML, like Gecko) Chrome/114.0.0.0 Safari/537.36" etag="zFSqfpMGVI2RDraRV1oW" version="21.6.1" type="github" pages="2">
  <diagram name="Use Case" id="PmWD0WhmYAFp-AAsVDn6">
    <mxGraphModel dx="794" dy="477" grid="1" gridSize="10" guides="1" tooltips="1" connect="1" arrows="1" fold="1" page="1" pageScale="1" pageWidth="850" pageHeight="1100" math="0" shadow="0">
      <root>
        <mxCell id="0" />
        <mxCell id="1" parent="0" />
        <mxCell id="ToEkL_NdJMeM7tM_yNgW-9" value="Foundlunteer Use Case Diagram" style="shape=umlFrame;whiteSpace=wrap;html=1;pointerEvents=0;fontFamily=Verdana;width=130;height=60;" parent="1" vertex="1">
          <mxGeometry x="90" y="40" width="670" height="650" as="geometry" />
        </mxCell>
        <mxCell id="ToEkL_NdJMeM7tM_yNgW-13" style="rounded=0;orthogonalLoop=1;jettySize=auto;html=1;exitX=0.5;exitY=0;exitDx=0;exitDy=0;dashed=1;fontFamily=Verdana;" parent="1" source="ToEkL_NdJMeM7tM_yNgW-10" target="ToEkL_NdJMeM7tM_yNgW-11" edge="1">
          <mxGeometry relative="1" as="geometry" />
        </mxCell>
        <mxCell id="ToEkL_NdJMeM7tM_yNgW-14" value="&lt;font style=&quot;font-size: 9px;&quot;&gt;&amp;lt;&amp;lt;include&amp;gt;&amp;gt;&lt;/font&gt;" style="edgeLabel;html=1;align=center;verticalAlign=middle;resizable=0;points=[];fontFamily=Verdana;" parent="ToEkL_NdJMeM7tM_yNgW-13" vertex="1" connectable="0">
          <mxGeometry x="0.5003" y="1" relative="1" as="geometry">
            <mxPoint y="15" as="offset" />
          </mxGeometry>
        </mxCell>
        <mxCell id="ToEkL_NdJMeM7tM_yNgW-10" value="Login" style="ellipse;whiteSpace=wrap;html=1;fontFamily=Verdana;" parent="1" vertex="1">
          <mxGeometry x="358.75" y="360" width="80" height="50" as="geometry" />
        </mxCell>
        <mxCell id="ToEkL_NdJMeM7tM_yNgW-11" value="Register" style="ellipse;whiteSpace=wrap;html=1;fontFamily=Verdana;" parent="1" vertex="1">
          <mxGeometry x="357.5" y="250" width="82.5" height="50" as="geometry" />
        </mxCell>
        <mxCell id="ToEkL_NdJMeM7tM_yNgW-33" style="rounded=0;orthogonalLoop=1;jettySize=auto;html=1;dashed=1;fontFamily=Verdana;" parent="1" source="ToEkL_NdJMeM7tM_yNgW-15" target="ToEkL_NdJMeM7tM_yNgW-10" edge="1">
          <mxGeometry relative="1" as="geometry">
            <mxPoint x="580" y="384.5" as="sourcePoint" />
            <mxPoint x="410" y="384.5" as="targetPoint" />
          </mxGeometry>
        </mxCell>
        <mxCell id="ToEkL_NdJMeM7tM_yNgW-34" value="&lt;font style=&quot;font-size: 9px;&quot;&gt;&amp;lt;&amp;lt;include&amp;gt;&amp;gt;&lt;/font&gt;" style="edgeLabel;html=1;align=center;verticalAlign=middle;resizable=0;points=[];fontFamily=Verdana;fontSize=9;" parent="ToEkL_NdJMeM7tM_yNgW-33" vertex="1" connectable="0">
          <mxGeometry x="0.1686" y="2" relative="1" as="geometry">
            <mxPoint x="21" y="-14" as="offset" />
          </mxGeometry>
        </mxCell>
        <mxCell id="ToEkL_NdJMeM7tM_yNgW-38" style="edgeStyle=none;shape=connector;rounded=0;orthogonalLoop=1;jettySize=auto;html=1;entryX=0.5;entryY=0;entryDx=0;entryDy=0;dashed=1;labelBackgroundColor=default;strokeColor=default;fontFamily=Verdana;fontSize=11;fontColor=default;endArrow=classic;" parent="1" source="ToEkL_NdJMeM7tM_yNgW-15" target="ToEkL_NdJMeM7tM_yNgW-35" edge="1">
          <mxGeometry relative="1" as="geometry">
            <Array as="points" />
          </mxGeometry>
        </mxCell>
        <mxCell id="ToEkL_NdJMeM7tM_yNgW-43" value="&lt;font style=&quot;font-size: 9px;&quot;&gt;&amp;lt;&amp;lt;extend&amp;gt;&amp;gt;&lt;/font&gt;" style="edgeLabel;html=1;align=center;verticalAlign=middle;resizable=0;points=[];fontSize=9;fontFamily=Verdana;fontColor=default;" parent="ToEkL_NdJMeM7tM_yNgW-38" vertex="1" connectable="0">
          <mxGeometry x="0.1758" y="3" relative="1" as="geometry">
            <mxPoint x="4" y="-4" as="offset" />
          </mxGeometry>
        </mxCell>
        <mxCell id="ToEkL_NdJMeM7tM_yNgW-39" style="edgeStyle=none;shape=connector;rounded=0;orthogonalLoop=1;jettySize=auto;html=1;dashed=1;labelBackgroundColor=default;strokeColor=default;fontFamily=Verdana;fontSize=11;fontColor=default;endArrow=classic;" parent="1" source="ToEkL_NdJMeM7tM_yNgW-15" target="ToEkL_NdJMeM7tM_yNgW-37" edge="1">
          <mxGeometry relative="1" as="geometry" />
        </mxCell>
        <mxCell id="ToEkL_NdJMeM7tM_yNgW-44" value="&lt;font style=&quot;font-size: 9px;&quot;&gt;&amp;lt;&amp;lt;extend&amp;gt;&amp;gt;&lt;/font&gt;" style="edgeLabel;html=1;align=center;verticalAlign=middle;resizable=0;points=[];fontSize=9;fontFamily=Verdana;fontColor=default;" parent="ToEkL_NdJMeM7tM_yNgW-39" vertex="1" connectable="0">
          <mxGeometry x="0.2508" y="2" relative="1" as="geometry">
            <mxPoint x="-2" y="4" as="offset" />
          </mxGeometry>
        </mxCell>
        <mxCell id="ToEkL_NdJMeM7tM_yNgW-40" style="edgeStyle=none;shape=connector;rounded=0;orthogonalLoop=1;jettySize=auto;html=1;dashed=1;labelBackgroundColor=default;strokeColor=default;fontFamily=Verdana;fontSize=11;fontColor=default;endArrow=classic;" parent="1" source="ToEkL_NdJMeM7tM_yNgW-15" target="ToEkL_NdJMeM7tM_yNgW-36" edge="1">
          <mxGeometry relative="1" as="geometry" />
        </mxCell>
        <mxCell id="ToEkL_NdJMeM7tM_yNgW-42" value="&lt;font style=&quot;font-size: 9px;&quot;&gt;&amp;lt;&amp;lt;extend&amp;gt;&amp;gt;&lt;/font&gt;" style="edgeLabel;html=1;align=center;verticalAlign=middle;resizable=0;points=[];fontSize=9;fontFamily=Verdana;fontColor=default;" parent="ToEkL_NdJMeM7tM_yNgW-40" vertex="1" connectable="0">
          <mxGeometry x="0.4" y="-1" relative="1" as="geometry">
            <mxPoint x="21" y="-15" as="offset" />
          </mxGeometry>
        </mxCell>
        <mxCell id="ToEkL_NdJMeM7tM_yNgW-15" value="Manage Job" style="ellipse;whiteSpace=wrap;html=1;fontFamily=Verdana;" parent="1" vertex="1">
          <mxGeometry x="590" y="260" width="140" height="60" as="geometry" />
        </mxCell>
        <mxCell id="ToEkL_NdJMeM7tM_yNgW-24" style="rounded=0;orthogonalLoop=1;jettySize=auto;html=1;dashed=1;fontFamily=Verdana;" parent="1" source="ToEkL_NdJMeM7tM_yNgW-16" target="ToEkL_NdJMeM7tM_yNgW-23" edge="1">
          <mxGeometry relative="1" as="geometry" />
        </mxCell>
        <mxCell id="ToEkL_NdJMeM7tM_yNgW-25" value="&lt;font style=&quot;font-size: 9px;&quot;&gt;&amp;lt;&amp;lt;extend&amp;gt;&amp;gt;&lt;/font&gt;" style="edgeLabel;html=1;align=center;verticalAlign=middle;resizable=0;points=[];fontFamily=Verdana;fontSize=9;" parent="ToEkL_NdJMeM7tM_yNgW-24" vertex="1" connectable="0">
          <mxGeometry x="0.3306" y="2" relative="1" as="geometry">
            <mxPoint x="24" y="-2" as="offset" />
          </mxGeometry>
        </mxCell>
        <mxCell id="ToEkL_NdJMeM7tM_yNgW-26" style="rounded=0;orthogonalLoop=1;jettySize=auto;html=1;dashed=1;fontFamily=Verdana;" parent="1" source="ToEkL_NdJMeM7tM_yNgW-16" target="ToEkL_NdJMeM7tM_yNgW-22" edge="1">
          <mxGeometry relative="1" as="geometry" />
        </mxCell>
        <mxCell id="ToEkL_NdJMeM7tM_yNgW-27" value="&amp;lt;&amp;lt;extend&amp;gt;&amp;gt;" style="edgeLabel;html=1;align=center;verticalAlign=middle;resizable=0;points=[];fontFamily=Verdana;fontSize=9;" parent="ToEkL_NdJMeM7tM_yNgW-26" vertex="1" connectable="0">
          <mxGeometry x="0.4183" y="1" relative="1" as="geometry">
            <mxPoint x="11" y="-8" as="offset" />
          </mxGeometry>
        </mxCell>
        <mxCell id="ToEkL_NdJMeM7tM_yNgW-28" style="rounded=0;orthogonalLoop=1;jettySize=auto;html=1;dashed=1;fontFamily=Verdana;" parent="1" source="ToEkL_NdJMeM7tM_yNgW-16" target="ToEkL_NdJMeM7tM_yNgW-21" edge="1">
          <mxGeometry relative="1" as="geometry" />
        </mxCell>
        <mxCell id="ToEkL_NdJMeM7tM_yNgW-29" value="&lt;font style=&quot;font-size: 9px;&quot;&gt;&amp;lt;&amp;lt;extend&amp;gt;&amp;gt;&lt;/font&gt;" style="edgeLabel;html=1;align=center;verticalAlign=middle;resizable=0;points=[];fontFamily=Verdana;fontSize=9;" parent="ToEkL_NdJMeM7tM_yNgW-28" vertex="1" connectable="0">
          <mxGeometry x="-0.3131" y="-1" relative="1" as="geometry">
            <mxPoint as="offset" />
          </mxGeometry>
        </mxCell>
        <mxCell id="ToEkL_NdJMeM7tM_yNgW-30" style="rounded=0;orthogonalLoop=1;jettySize=auto;html=1;exitX=0;exitY=0;exitDx=0;exitDy=0;dashed=1;fontFamily=Verdana;" parent="1" source="ToEkL_NdJMeM7tM_yNgW-16" target="ToEkL_NdJMeM7tM_yNgW-10" edge="1">
          <mxGeometry relative="1" as="geometry" />
        </mxCell>
        <mxCell id="ToEkL_NdJMeM7tM_yNgW-31" value="&amp;lt;&amp;lt;include&amp;gt;&amp;gt;" style="edgeLabel;html=1;align=center;verticalAlign=middle;resizable=0;points=[];fontFamily=Verdana;fontSize=9;" parent="ToEkL_NdJMeM7tM_yNgW-30" vertex="1" connectable="0">
          <mxGeometry x="0.2772" y="-1" relative="1" as="geometry">
            <mxPoint x="32" y="10" as="offset" />
          </mxGeometry>
        </mxCell>
        <mxCell id="ToEkL_NdJMeM7tM_yNgW-16" value="Manage Registrant" style="ellipse;whiteSpace=wrap;html=1;fontFamily=Verdana;" parent="1" vertex="1">
          <mxGeometry x="590" y="490" width="140" height="60" as="geometry" />
        </mxCell>
        <mxCell id="ToEkL_NdJMeM7tM_yNgW-41" style="edgeStyle=none;shape=connector;rounded=0;orthogonalLoop=1;jettySize=auto;html=1;dashed=1;labelBackgroundColor=default;strokeColor=default;fontFamily=Verdana;fontSize=11;fontColor=default;endArrow=classic;" parent="1" source="ToEkL_NdJMeM7tM_yNgW-17" target="ToEkL_NdJMeM7tM_yNgW-10" edge="1">
          <mxGeometry relative="1" as="geometry" />
        </mxCell>
        <mxCell id="ToEkL_NdJMeM7tM_yNgW-45" value="&lt;font style=&quot;font-size: 9px;&quot;&gt;&amp;lt;&amp;lt;include&amp;gt;&amp;gt;&lt;/font&gt;" style="edgeLabel;html=1;align=center;verticalAlign=middle;resizable=0;points=[];fontSize=9;fontFamily=Verdana;fontColor=default;" parent="ToEkL_NdJMeM7tM_yNgW-41" vertex="1" connectable="0">
          <mxGeometry x="-0.1214" y="-1" relative="1" as="geometry">
            <mxPoint as="offset" />
          </mxGeometry>
        </mxCell>
        <mxCell id="ToEkL_NdJMeM7tM_yNgW-53" style="edgeStyle=none;shape=connector;rounded=0;orthogonalLoop=1;jettySize=auto;html=1;dashed=1;labelBackgroundColor=default;strokeColor=default;fontFamily=Verdana;fontSize=11;fontColor=default;endArrow=classic;" parent="1" source="ToEkL_NdJMeM7tM_yNgW-17" target="ToEkL_NdJMeM7tM_yNgW-52" edge="1">
          <mxGeometry relative="1" as="geometry" />
        </mxCell>
        <mxCell id="ToEkL_NdJMeM7tM_yNgW-56" value="&amp;lt;&amp;lt;extend&amp;gt;&amp;gt;" style="edgeLabel;html=1;align=center;verticalAlign=middle;resizable=0;points=[];fontSize=9;fontFamily=Verdana;fontColor=default;" parent="ToEkL_NdJMeM7tM_yNgW-53" vertex="1" connectable="0">
          <mxGeometry x="-0.5022" y="-2" relative="1" as="geometry">
            <mxPoint x="-4" y="-5" as="offset" />
          </mxGeometry>
        </mxCell>
        <mxCell id="ToEkL_NdJMeM7tM_yNgW-17" value="Manage Profile" style="ellipse;whiteSpace=wrap;html=1;fontFamily=Verdana;" parent="1" vertex="1">
          <mxGeometry x="590" y="160" width="140" height="70" as="geometry" />
        </mxCell>
        <mxCell id="ToEkL_NdJMeM7tM_yNgW-50" style="edgeStyle=none;shape=connector;rounded=0;orthogonalLoop=1;jettySize=auto;html=1;dashed=1;labelBackgroundColor=default;strokeColor=default;fontFamily=Verdana;fontSize=11;fontColor=default;endArrow=classic;" parent="1" source="ToEkL_NdJMeM7tM_yNgW-18" target="ToEkL_NdJMeM7tM_yNgW-48" edge="1">
          <mxGeometry relative="1" as="geometry" />
        </mxCell>
        <mxCell id="ToEkL_NdJMeM7tM_yNgW-55" value="&amp;lt;&amp;lt;extend&amp;gt;&amp;gt;" style="edgeLabel;html=1;align=center;verticalAlign=middle;resizable=0;points=[];fontSize=9;fontFamily=Verdana;fontColor=default;" parent="ToEkL_NdJMeM7tM_yNgW-50" vertex="1" connectable="0">
          <mxGeometry x="-0.4647" relative="1" as="geometry">
            <mxPoint x="12" y="-6" as="offset" />
          </mxGeometry>
        </mxCell>
        <mxCell id="ToEkL_NdJMeM7tM_yNgW-51" style="edgeStyle=none;shape=connector;rounded=0;orthogonalLoop=1;jettySize=auto;html=1;dashed=1;labelBackgroundColor=default;strokeColor=default;fontFamily=Verdana;fontSize=11;fontColor=default;endArrow=classic;" parent="1" source="ToEkL_NdJMeM7tM_yNgW-18" target="ToEkL_NdJMeM7tM_yNgW-49" edge="1">
          <mxGeometry relative="1" as="geometry" />
        </mxCell>
        <mxCell id="ToEkL_NdJMeM7tM_yNgW-54" value="&amp;lt;&amp;lt;extend&amp;gt;&amp;gt;" style="edgeLabel;html=1;align=center;verticalAlign=middle;resizable=0;points=[];fontSize=9;fontFamily=Verdana;fontColor=default;" parent="ToEkL_NdJMeM7tM_yNgW-51" vertex="1" connectable="0">
          <mxGeometry x="-0.4104" y="-2" relative="1" as="geometry">
            <mxPoint x="19" y="-9" as="offset" />
          </mxGeometry>
        </mxCell>
        <mxCell id="ToEkL_NdJMeM7tM_yNgW-57" style="edgeStyle=none;shape=connector;rounded=0;orthogonalLoop=1;jettySize=auto;html=1;dashed=1;labelBackgroundColor=default;strokeColor=default;fontFamily=Verdana;fontSize=11;fontColor=default;endArrow=classic;" parent="1" source="ToEkL_NdJMeM7tM_yNgW-18" target="ToEkL_NdJMeM7tM_yNgW-10" edge="1">
          <mxGeometry relative="1" as="geometry" />
        </mxCell>
        <mxCell id="ToEkL_NdJMeM7tM_yNgW-61" value="&amp;lt;&amp;lt;include&amp;gt;&amp;gt;" style="edgeLabel;html=1;align=center;verticalAlign=middle;resizable=0;points=[];fontSize=9;fontFamily=Verdana;fontColor=default;" parent="ToEkL_NdJMeM7tM_yNgW-57" vertex="1" connectable="0">
          <mxGeometry x="0.3686" y="1" relative="1" as="geometry">
            <mxPoint x="-32" y="-40" as="offset" />
          </mxGeometry>
        </mxCell>
        <mxCell id="ToEkL_NdJMeM7tM_yNgW-18" value="Manage Profile" style="ellipse;whiteSpace=wrap;html=1;fontFamily=Verdana;" parent="1" vertex="1">
          <mxGeometry x="130" y="160" width="140" height="70" as="geometry" />
        </mxCell>
        <mxCell id="ToEkL_NdJMeM7tM_yNgW-59" style="edgeStyle=none;shape=connector;rounded=0;orthogonalLoop=1;jettySize=auto;html=1;dashed=1;labelBackgroundColor=default;strokeColor=default;fontFamily=Verdana;fontSize=11;fontColor=default;endArrow=classic;" parent="1" source="ToEkL_NdJMeM7tM_yNgW-19" target="ToEkL_NdJMeM7tM_yNgW-10" edge="1">
          <mxGeometry relative="1" as="geometry" />
        </mxCell>
        <mxCell id="ToEkL_NdJMeM7tM_yNgW-63" value="&amp;lt;&amp;lt;include&amp;gt;&amp;gt;" style="edgeLabel;html=1;align=center;verticalAlign=middle;resizable=0;points=[];fontSize=9;fontFamily=Verdana;fontColor=default;" parent="ToEkL_NdJMeM7tM_yNgW-59" vertex="1" connectable="0">
          <mxGeometry x="-0.4234" y="-3" relative="1" as="geometry">
            <mxPoint x="14" y="-6" as="offset" />
          </mxGeometry>
        </mxCell>
        <mxCell id="ToEkL_NdJMeM7tM_yNgW-19" value="Register Job" style="ellipse;whiteSpace=wrap;html=1;fontFamily=Verdana;" parent="1" vertex="1">
          <mxGeometry x="130" y="385" width="140" height="70" as="geometry" />
        </mxCell>
        <mxCell id="ToEkL_NdJMeM7tM_yNgW-58" style="edgeStyle=none;shape=connector;rounded=0;orthogonalLoop=1;jettySize=auto;html=1;dashed=1;labelBackgroundColor=default;strokeColor=default;fontFamily=Verdana;fontSize=11;fontColor=default;endArrow=classic;" parent="1" source="ToEkL_NdJMeM7tM_yNgW-20" target="ToEkL_NdJMeM7tM_yNgW-10" edge="1">
          <mxGeometry relative="1" as="geometry" />
        </mxCell>
        <mxCell id="ToEkL_NdJMeM7tM_yNgW-62" value="&amp;lt;&amp;lt;include&amp;gt;&amp;gt;" style="edgeLabel;html=1;align=center;verticalAlign=middle;resizable=0;points=[];fontSize=9;fontFamily=Verdana;fontColor=default;" parent="ToEkL_NdJMeM7tM_yNgW-58" vertex="1" connectable="0">
          <mxGeometry x="-0.4416" y="-3" relative="1" as="geometry">
            <mxPoint x="10" as="offset" />
          </mxGeometry>
        </mxCell>
        <mxCell id="ToEkL_NdJMeM7tM_yNgW-20" value="Search Job" style="ellipse;whiteSpace=wrap;html=1;fontFamily=Verdana;" parent="1" vertex="1">
          <mxGeometry x="130" y="280" width="140" height="70" as="geometry" />
        </mxCell>
        <mxCell id="ToEkL_NdJMeM7tM_yNgW-21" value="Change Registrant Status" style="ellipse;whiteSpace=wrap;html=1;fontFamily=Verdana;" parent="1" vertex="1">
          <mxGeometry x="530" y="590" width="140" height="60" as="geometry" />
        </mxCell>
        <mxCell id="ToEkL_NdJMeM7tM_yNgW-22" value="See Registrant Profile" style="ellipse;whiteSpace=wrap;html=1;fontFamily=Verdana;" parent="1" vertex="1">
          <mxGeometry x="410" y="540" width="140" height="60" as="geometry" />
        </mxCell>
        <mxCell id="ToEkL_NdJMeM7tM_yNgW-23" value="Download Registrant Document" style="ellipse;whiteSpace=wrap;html=1;fontFamily=Verdana;" parent="1" vertex="1">
          <mxGeometry x="298.75" y="490" width="140" height="60" as="geometry" />
        </mxCell>
        <mxCell id="ToEkL_NdJMeM7tM_yNgW-60" style="edgeStyle=none;shape=connector;rounded=0;orthogonalLoop=1;jettySize=auto;html=1;dashed=1;labelBackgroundColor=default;strokeColor=default;fontFamily=Verdana;fontSize=11;fontColor=default;endArrow=classic;" parent="1" source="ToEkL_NdJMeM7tM_yNgW-32" target="ToEkL_NdJMeM7tM_yNgW-10" edge="1">
          <mxGeometry relative="1" as="geometry" />
        </mxCell>
        <mxCell id="ToEkL_NdJMeM7tM_yNgW-64" value="&amp;lt;&amp;lt;include&amp;gt;&amp;gt;" style="edgeLabel;html=1;align=center;verticalAlign=middle;resizable=0;points=[];fontSize=9;fontFamily=Verdana;fontColor=default;" parent="ToEkL_NdJMeM7tM_yNgW-60" vertex="1" connectable="0">
          <mxGeometry x="-0.1935" y="-3" relative="1" as="geometry">
            <mxPoint y="-1" as="offset" />
          </mxGeometry>
        </mxCell>
        <mxCell id="ToEkL_NdJMeM7tM_yNgW-32" value="Save Job" style="ellipse;whiteSpace=wrap;html=1;fontFamily=Verdana;" parent="1" vertex="1">
          <mxGeometry x="130" y="490" width="140" height="70" as="geometry" />
        </mxCell>
        <mxCell id="ToEkL_NdJMeM7tM_yNgW-35" value="Delete Job" style="ellipse;whiteSpace=wrap;html=1;fontFamily=Verdana;" parent="1" vertex="1">
          <mxGeometry x="560" y="390" width="90" height="40" as="geometry" />
        </mxCell>
        <mxCell id="ToEkL_NdJMeM7tM_yNgW-36" value="Update Job" style="ellipse;whiteSpace=wrap;html=1;fontFamily=Verdana;" parent="1" vertex="1">
          <mxGeometry x="490" y="360" width="90" height="40" as="geometry" />
        </mxCell>
        <mxCell id="ToEkL_NdJMeM7tM_yNgW-37" value="Create Job" style="ellipse;whiteSpace=wrap;html=1;fontFamily=Verdana;" parent="1" vertex="1">
          <mxGeometry x="635" y="415" width="90" height="40" as="geometry" />
        </mxCell>
        <mxCell id="ToEkL_NdJMeM7tM_yNgW-48" value="Update Profile" style="ellipse;whiteSpace=wrap;html=1;fontFamily=Verdana;" parent="1" vertex="1">
          <mxGeometry x="286" y="70" width="108.75" height="50" as="geometry" />
        </mxCell>
        <mxCell id="ToEkL_NdJMeM7tM_yNgW-49" value="Upload Document" style="ellipse;whiteSpace=wrap;html=1;labelBackgroundColor=default;fontFamily=Verdana;fontSize=11;fontColor=default;fillColor=none;gradientColor=none;" parent="1" vertex="1">
          <mxGeometry x="360" y="130" width="111.25" height="50" as="geometry" />
        </mxCell>
        <mxCell id="ToEkL_NdJMeM7tM_yNgW-52" value="Update Profile" style="ellipse;whiteSpace=wrap;html=1;fontFamily=Verdana;" parent="1" vertex="1">
          <mxGeometry x="481.25" y="70" width="108.75" height="50" as="geometry" />
        </mxCell>
        <mxCell id="ToEkL_NdJMeM7tM_yNgW-67" style="edgeStyle=none;shape=connector;rounded=0;orthogonalLoop=1;jettySize=auto;html=1;labelBackgroundColor=default;strokeColor=default;fontFamily=Helvetica;fontSize=11;fontColor=default;endArrow=none;endFill=0;" parent="1" source="ToEkL_NdJMeM7tM_yNgW-65" target="ToEkL_NdJMeM7tM_yNgW-20" edge="1">
          <mxGeometry relative="1" as="geometry" />
        </mxCell>
        <mxCell id="ToEkL_NdJMeM7tM_yNgW-68" style="edgeStyle=none;shape=connector;rounded=0;orthogonalLoop=1;jettySize=auto;html=1;labelBackgroundColor=default;strokeColor=default;fontFamily=Helvetica;fontSize=11;fontColor=default;endArrow=none;endFill=0;" parent="1" source="ToEkL_NdJMeM7tM_yNgW-65" target="ToEkL_NdJMeM7tM_yNgW-18" edge="1">
          <mxGeometry relative="1" as="geometry" />
        </mxCell>
        <mxCell id="ToEkL_NdJMeM7tM_yNgW-69" style="edgeStyle=none;shape=connector;rounded=0;orthogonalLoop=1;jettySize=auto;html=1;labelBackgroundColor=default;strokeColor=default;fontFamily=Helvetica;fontSize=11;fontColor=default;endArrow=none;endFill=0;" parent="1" source="ToEkL_NdJMeM7tM_yNgW-65" target="ToEkL_NdJMeM7tM_yNgW-19" edge="1">
          <mxGeometry relative="1" as="geometry" />
        </mxCell>
        <mxCell id="ToEkL_NdJMeM7tM_yNgW-70" style="edgeStyle=none;shape=connector;rounded=0;orthogonalLoop=1;jettySize=auto;html=1;labelBackgroundColor=default;strokeColor=default;fontFamily=Helvetica;fontSize=11;fontColor=default;endArrow=none;endFill=0;" parent="1" source="ToEkL_NdJMeM7tM_yNgW-65" target="ToEkL_NdJMeM7tM_yNgW-32" edge="1">
          <mxGeometry relative="1" as="geometry" />
        </mxCell>
        <mxCell id="ToEkL_NdJMeM7tM_yNgW-65" value="Individual" style="shape=umlActor;verticalLabelPosition=bottom;verticalAlign=top;html=1;labelBackgroundColor=default;fontFamily=Helvetica;fontSize=11;fontColor=default;fillColor=none;gradientColor=none;" parent="1" vertex="1">
          <mxGeometry x="30" y="340" width="30" height="60" as="geometry" />
        </mxCell>
        <mxCell id="ToEkL_NdJMeM7tM_yNgW-72" style="edgeStyle=none;shape=connector;rounded=0;orthogonalLoop=1;jettySize=auto;html=1;labelBackgroundColor=default;strokeColor=default;fontFamily=Helvetica;fontSize=11;fontColor=default;endArrow=none;endFill=0;" parent="1" source="ToEkL_NdJMeM7tM_yNgW-71" target="ToEkL_NdJMeM7tM_yNgW-17" edge="1">
          <mxGeometry relative="1" as="geometry" />
        </mxCell>
        <mxCell id="ToEkL_NdJMeM7tM_yNgW-73" style="edgeStyle=none;shape=connector;rounded=0;orthogonalLoop=1;jettySize=auto;html=1;labelBackgroundColor=default;strokeColor=default;fontFamily=Helvetica;fontSize=11;fontColor=default;endArrow=none;endFill=0;" parent="1" source="ToEkL_NdJMeM7tM_yNgW-71" target="ToEkL_NdJMeM7tM_yNgW-15" edge="1">
          <mxGeometry relative="1" as="geometry" />
        </mxCell>
        <mxCell id="ToEkL_NdJMeM7tM_yNgW-74" style="edgeStyle=none;shape=connector;rounded=0;orthogonalLoop=1;jettySize=auto;html=1;labelBackgroundColor=default;strokeColor=default;fontFamily=Helvetica;fontSize=11;fontColor=default;endArrow=none;endFill=0;" parent="1" source="ToEkL_NdJMeM7tM_yNgW-71" target="ToEkL_NdJMeM7tM_yNgW-16" edge="1">
          <mxGeometry relative="1" as="geometry" />
        </mxCell>
        <mxCell id="ToEkL_NdJMeM7tM_yNgW-71" value="Organization" style="shape=umlActor;verticalLabelPosition=bottom;verticalAlign=top;html=1;labelBackgroundColor=default;fontFamily=Helvetica;fontSize=11;fontColor=default;fillColor=none;gradientColor=none;" parent="1" vertex="1">
          <mxGeometry x="790" y="335" width="30" height="60" as="geometry" />
        </mxCell>
      </root>
    </mxGraphModel>
  </diagram>
  <diagram name="Lite Use Case" id="wxmeUJ4Ec9N80EKgcOPF">
    <mxGraphModel dx="794" dy="477" grid="1" gridSize="10" guides="1" tooltips="1" connect="1" arrows="1" fold="1" page="1" pageScale="1" pageWidth="850" pageHeight="1100" math="0" shadow="0">
      <root>
        <mxCell id="_Mam1UaZ5qsC0h6ZeM_4-0" />
        <mxCell id="_Mam1UaZ5qsC0h6ZeM_4-1" parent="_Mam1UaZ5qsC0h6ZeM_4-0" />
        <mxCell id="_Mam1UaZ5qsC0h6ZeM_4-2" value="Foundlunteer Use Case Diagram" style="shape=umlFrame;whiteSpace=wrap;html=1;pointerEvents=0;fontFamily=Verdana;width=130;height=60;" vertex="1" parent="_Mam1UaZ5qsC0h6ZeM_4-1">
          <mxGeometry x="90" y="40" width="670" height="650" as="geometry" />
        </mxCell>
        <mxCell id="_Mam1UaZ5qsC0h6ZeM_4-3" style="rounded=0;orthogonalLoop=1;jettySize=auto;html=1;exitX=0.5;exitY=0;exitDx=0;exitDy=0;dashed=1;fontFamily=Verdana;" edge="1" parent="_Mam1UaZ5qsC0h6ZeM_4-1" source="_Mam1UaZ5qsC0h6ZeM_4-5" target="_Mam1UaZ5qsC0h6ZeM_4-6">
          <mxGeometry relative="1" as="geometry" />
        </mxCell>
        <mxCell id="_Mam1UaZ5qsC0h6ZeM_4-4" value="&lt;font style=&quot;font-size: 9px;&quot;&gt;&amp;lt;&amp;lt;include&amp;gt;&amp;gt;&lt;/font&gt;" style="edgeLabel;html=1;align=center;verticalAlign=middle;resizable=0;points=[];fontFamily=Verdana;" vertex="1" connectable="0" parent="_Mam1UaZ5qsC0h6ZeM_4-3">
          <mxGeometry x="0.5003" y="1" relative="1" as="geometry">
            <mxPoint y="15" as="offset" />
          </mxGeometry>
        </mxCell>
        <mxCell id="_Mam1UaZ5qsC0h6ZeM_4-5" value="Login" style="ellipse;whiteSpace=wrap;html=1;fontFamily=Verdana;" vertex="1" parent="_Mam1UaZ5qsC0h6ZeM_4-1">
          <mxGeometry x="358.75" y="360" width="80" height="50" as="geometry" />
        </mxCell>
        <mxCell id="_Mam1UaZ5qsC0h6ZeM_4-6" value="Register" style="ellipse;whiteSpace=wrap;html=1;fontFamily=Verdana;" vertex="1" parent="_Mam1UaZ5qsC0h6ZeM_4-1">
          <mxGeometry x="357.5" y="250" width="82.5" height="50" as="geometry" />
        </mxCell>
        <mxCell id="_Mam1UaZ5qsC0h6ZeM_4-7" style="rounded=0;orthogonalLoop=1;jettySize=auto;html=1;dashed=1;fontFamily=Verdana;" edge="1" parent="_Mam1UaZ5qsC0h6ZeM_4-1" source="_Mam1UaZ5qsC0h6ZeM_4-15" target="_Mam1UaZ5qsC0h6ZeM_4-5">
          <mxGeometry relative="1" as="geometry">
            <mxPoint x="580" y="384.5" as="sourcePoint" />
            <mxPoint x="410" y="384.5" as="targetPoint" />
          </mxGeometry>
        </mxCell>
        <mxCell id="_Mam1UaZ5qsC0h6ZeM_4-8" value="&lt;font style=&quot;font-size: 9px;&quot;&gt;&amp;lt;&amp;lt;include&amp;gt;&amp;gt;&lt;/font&gt;" style="edgeLabel;html=1;align=center;verticalAlign=middle;resizable=0;points=[];fontFamily=Verdana;fontSize=9;" vertex="1" connectable="0" parent="_Mam1UaZ5qsC0h6ZeM_4-7">
          <mxGeometry x="0.1686" y="2" relative="1" as="geometry">
            <mxPoint x="21" y="-14" as="offset" />
          </mxGeometry>
        </mxCell>
        <mxCell id="_Mam1UaZ5qsC0h6ZeM_4-9" style="edgeStyle=none;shape=connector;rounded=0;orthogonalLoop=1;jettySize=auto;html=1;entryX=0.5;entryY=0;entryDx=0;entryDy=0;dashed=1;labelBackgroundColor=default;strokeColor=default;fontFamily=Verdana;fontSize=11;fontColor=default;endArrow=classic;" edge="1" parent="_Mam1UaZ5qsC0h6ZeM_4-1" source="_Mam1UaZ5qsC0h6ZeM_4-15" target="_Mam1UaZ5qsC0h6ZeM_4-49">
          <mxGeometry relative="1" as="geometry">
            <Array as="points" />
          </mxGeometry>
        </mxCell>
        <mxCell id="_Mam1UaZ5qsC0h6ZeM_4-10" value="&lt;font style=&quot;font-size: 9px;&quot;&gt;&amp;lt;&amp;lt;extend&amp;gt;&amp;gt;&lt;/font&gt;" style="edgeLabel;html=1;align=center;verticalAlign=middle;resizable=0;points=[];fontSize=9;fontFamily=Verdana;fontColor=default;" vertex="1" connectable="0" parent="_Mam1UaZ5qsC0h6ZeM_4-9">
          <mxGeometry x="0.1758" y="3" relative="1" as="geometry">
            <mxPoint x="4" y="-4" as="offset" />
          </mxGeometry>
        </mxCell>
        <mxCell id="_Mam1UaZ5qsC0h6ZeM_4-11" style="edgeStyle=none;shape=connector;rounded=0;orthogonalLoop=1;jettySize=auto;html=1;dashed=1;labelBackgroundColor=default;strokeColor=default;fontFamily=Verdana;fontSize=11;fontColor=default;endArrow=classic;" edge="1" parent="_Mam1UaZ5qsC0h6ZeM_4-1" source="_Mam1UaZ5qsC0h6ZeM_4-15" target="_Mam1UaZ5qsC0h6ZeM_4-51">
          <mxGeometry relative="1" as="geometry" />
        </mxCell>
        <mxCell id="_Mam1UaZ5qsC0h6ZeM_4-12" value="&lt;font style=&quot;font-size: 9px;&quot;&gt;&amp;lt;&amp;lt;extend&amp;gt;&amp;gt;&lt;/font&gt;" style="edgeLabel;html=1;align=center;verticalAlign=middle;resizable=0;points=[];fontSize=9;fontFamily=Verdana;fontColor=default;" vertex="1" connectable="0" parent="_Mam1UaZ5qsC0h6ZeM_4-11">
          <mxGeometry x="0.2508" y="2" relative="1" as="geometry">
            <mxPoint x="-2" y="4" as="offset" />
          </mxGeometry>
        </mxCell>
        <mxCell id="_Mam1UaZ5qsC0h6ZeM_4-13" style="edgeStyle=none;shape=connector;rounded=0;orthogonalLoop=1;jettySize=auto;html=1;dashed=1;labelBackgroundColor=default;strokeColor=default;fontFamily=Verdana;fontSize=11;fontColor=default;endArrow=classic;" edge="1" parent="_Mam1UaZ5qsC0h6ZeM_4-1" source="_Mam1UaZ5qsC0h6ZeM_4-15" target="_Mam1UaZ5qsC0h6ZeM_4-50">
          <mxGeometry relative="1" as="geometry" />
        </mxCell>
        <mxCell id="_Mam1UaZ5qsC0h6ZeM_4-14" value="&lt;font style=&quot;font-size: 9px;&quot;&gt;&amp;lt;&amp;lt;extend&amp;gt;&amp;gt;&lt;/font&gt;" style="edgeLabel;html=1;align=center;verticalAlign=middle;resizable=0;points=[];fontSize=9;fontFamily=Verdana;fontColor=default;" vertex="1" connectable="0" parent="_Mam1UaZ5qsC0h6ZeM_4-13">
          <mxGeometry x="0.4" y="-1" relative="1" as="geometry">
            <mxPoint x="21" y="-15" as="offset" />
          </mxGeometry>
        </mxCell>
        <mxCell id="_Mam1UaZ5qsC0h6ZeM_4-15" value="Manage Job" style="ellipse;whiteSpace=wrap;html=1;fontFamily=Verdana;" vertex="1" parent="_Mam1UaZ5qsC0h6ZeM_4-1">
          <mxGeometry x="590" y="260" width="140" height="60" as="geometry" />
        </mxCell>
        <mxCell id="_Mam1UaZ5qsC0h6ZeM_4-16" style="rounded=0;orthogonalLoop=1;jettySize=auto;html=1;dashed=1;fontFamily=Verdana;" edge="1" parent="_Mam1UaZ5qsC0h6ZeM_4-1" source="_Mam1UaZ5qsC0h6ZeM_4-24" target="_Mam1UaZ5qsC0h6ZeM_4-45">
          <mxGeometry relative="1" as="geometry" />
        </mxCell>
        <mxCell id="_Mam1UaZ5qsC0h6ZeM_4-17" value="&lt;font style=&quot;font-size: 9px;&quot;&gt;&amp;lt;&amp;lt;extend&amp;gt;&amp;gt;&lt;/font&gt;" style="edgeLabel;html=1;align=center;verticalAlign=middle;resizable=0;points=[];fontFamily=Verdana;fontSize=9;" vertex="1" connectable="0" parent="_Mam1UaZ5qsC0h6ZeM_4-16">
          <mxGeometry x="0.3306" y="2" relative="1" as="geometry">
            <mxPoint x="24" y="-2" as="offset" />
          </mxGeometry>
        </mxCell>
        <mxCell id="_Mam1UaZ5qsC0h6ZeM_4-18" style="rounded=0;orthogonalLoop=1;jettySize=auto;html=1;dashed=1;fontFamily=Verdana;" edge="1" parent="_Mam1UaZ5qsC0h6ZeM_4-1" source="_Mam1UaZ5qsC0h6ZeM_4-24" target="_Mam1UaZ5qsC0h6ZeM_4-44">
          <mxGeometry relative="1" as="geometry" />
        </mxCell>
        <mxCell id="_Mam1UaZ5qsC0h6ZeM_4-19" value="&amp;lt;&amp;lt;extend&amp;gt;&amp;gt;" style="edgeLabel;html=1;align=center;verticalAlign=middle;resizable=0;points=[];fontFamily=Verdana;fontSize=9;" vertex="1" connectable="0" parent="_Mam1UaZ5qsC0h6ZeM_4-18">
          <mxGeometry x="0.4183" y="1" relative="1" as="geometry">
            <mxPoint x="11" y="-8" as="offset" />
          </mxGeometry>
        </mxCell>
        <mxCell id="_Mam1UaZ5qsC0h6ZeM_4-20" style="rounded=0;orthogonalLoop=1;jettySize=auto;html=1;dashed=1;fontFamily=Verdana;" edge="1" parent="_Mam1UaZ5qsC0h6ZeM_4-1" source="_Mam1UaZ5qsC0h6ZeM_4-24" target="_Mam1UaZ5qsC0h6ZeM_4-43">
          <mxGeometry relative="1" as="geometry" />
        </mxCell>
        <mxCell id="_Mam1UaZ5qsC0h6ZeM_4-21" value="&lt;font style=&quot;font-size: 9px;&quot;&gt;&amp;lt;&amp;lt;extend&amp;gt;&amp;gt;&lt;/font&gt;" style="edgeLabel;html=1;align=center;verticalAlign=middle;resizable=0;points=[];fontFamily=Verdana;fontSize=9;" vertex="1" connectable="0" parent="_Mam1UaZ5qsC0h6ZeM_4-20">
          <mxGeometry x="-0.3131" y="-1" relative="1" as="geometry">
            <mxPoint as="offset" />
          </mxGeometry>
        </mxCell>
        <mxCell id="_Mam1UaZ5qsC0h6ZeM_4-22" style="rounded=0;orthogonalLoop=1;jettySize=auto;html=1;exitX=0;exitY=0;exitDx=0;exitDy=0;dashed=1;fontFamily=Verdana;" edge="1" parent="_Mam1UaZ5qsC0h6ZeM_4-1" source="_Mam1UaZ5qsC0h6ZeM_4-24" target="_Mam1UaZ5qsC0h6ZeM_4-5">
          <mxGeometry relative="1" as="geometry" />
        </mxCell>
        <mxCell id="_Mam1UaZ5qsC0h6ZeM_4-23" value="&amp;lt;&amp;lt;include&amp;gt;&amp;gt;" style="edgeLabel;html=1;align=center;verticalAlign=middle;resizable=0;points=[];fontFamily=Verdana;fontSize=9;" vertex="1" connectable="0" parent="_Mam1UaZ5qsC0h6ZeM_4-22">
          <mxGeometry x="0.2772" y="-1" relative="1" as="geometry">
            <mxPoint x="32" y="10" as="offset" />
          </mxGeometry>
        </mxCell>
        <mxCell id="_Mam1UaZ5qsC0h6ZeM_4-24" value="Manage Registrant" style="ellipse;whiteSpace=wrap;html=1;fontFamily=Verdana;" vertex="1" parent="_Mam1UaZ5qsC0h6ZeM_4-1">
          <mxGeometry x="590" y="490" width="140" height="60" as="geometry" />
        </mxCell>
        <mxCell id="_Mam1UaZ5qsC0h6ZeM_4-25" style="edgeStyle=none;shape=connector;rounded=0;orthogonalLoop=1;jettySize=auto;html=1;dashed=1;labelBackgroundColor=default;strokeColor=default;fontFamily=Verdana;fontSize=11;fontColor=default;endArrow=classic;" edge="1" parent="_Mam1UaZ5qsC0h6ZeM_4-1" source="_Mam1UaZ5qsC0h6ZeM_4-29" target="_Mam1UaZ5qsC0h6ZeM_4-5">
          <mxGeometry relative="1" as="geometry" />
        </mxCell>
        <mxCell id="_Mam1UaZ5qsC0h6ZeM_4-26" value="&lt;font style=&quot;font-size: 9px;&quot;&gt;&amp;lt;&amp;lt;include&amp;gt;&amp;gt;&lt;/font&gt;" style="edgeLabel;html=1;align=center;verticalAlign=middle;resizable=0;points=[];fontSize=9;fontFamily=Verdana;fontColor=default;" vertex="1" connectable="0" parent="_Mam1UaZ5qsC0h6ZeM_4-25">
          <mxGeometry x="-0.1214" y="-1" relative="1" as="geometry">
            <mxPoint as="offset" />
          </mxGeometry>
        </mxCell>
        <mxCell id="_Mam1UaZ5qsC0h6ZeM_4-27" style="edgeStyle=none;shape=connector;rounded=0;orthogonalLoop=1;jettySize=auto;html=1;dashed=1;labelBackgroundColor=default;strokeColor=default;fontFamily=Verdana;fontSize=11;fontColor=default;endArrow=classic;" edge="1" parent="_Mam1UaZ5qsC0h6ZeM_4-1" source="_Mam1UaZ5qsC0h6ZeM_4-29" target="_Mam1UaZ5qsC0h6ZeM_4-54">
          <mxGeometry relative="1" as="geometry" />
        </mxCell>
        <mxCell id="_Mam1UaZ5qsC0h6ZeM_4-28" value="&amp;lt;&amp;lt;extend&amp;gt;&amp;gt;" style="edgeLabel;html=1;align=center;verticalAlign=middle;resizable=0;points=[];fontSize=9;fontFamily=Verdana;fontColor=default;" vertex="1" connectable="0" parent="_Mam1UaZ5qsC0h6ZeM_4-27">
          <mxGeometry x="-0.5022" y="-2" relative="1" as="geometry">
            <mxPoint x="-4" y="-5" as="offset" />
          </mxGeometry>
        </mxCell>
        <mxCell id="_Mam1UaZ5qsC0h6ZeM_4-29" value="Manage Profile" style="ellipse;whiteSpace=wrap;html=1;fontFamily=Verdana;" vertex="1" parent="_Mam1UaZ5qsC0h6ZeM_4-1">
          <mxGeometry x="590" y="160" width="140" height="70" as="geometry" />
        </mxCell>
        <mxCell id="_Mam1UaZ5qsC0h6ZeM_4-30" style="edgeStyle=none;shape=connector;rounded=0;orthogonalLoop=1;jettySize=auto;html=1;dashed=1;labelBackgroundColor=default;strokeColor=default;fontFamily=Verdana;fontSize=11;fontColor=default;endArrow=classic;" edge="1" parent="_Mam1UaZ5qsC0h6ZeM_4-1" source="_Mam1UaZ5qsC0h6ZeM_4-36" target="_Mam1UaZ5qsC0h6ZeM_4-52">
          <mxGeometry relative="1" as="geometry" />
        </mxCell>
        <mxCell id="_Mam1UaZ5qsC0h6ZeM_4-31" value="&amp;lt;&amp;lt;extend&amp;gt;&amp;gt;" style="edgeLabel;html=1;align=center;verticalAlign=middle;resizable=0;points=[];fontSize=9;fontFamily=Verdana;fontColor=default;" vertex="1" connectable="0" parent="_Mam1UaZ5qsC0h6ZeM_4-30">
          <mxGeometry x="-0.4647" relative="1" as="geometry">
            <mxPoint x="12" y="-6" as="offset" />
          </mxGeometry>
        </mxCell>
        <mxCell id="_Mam1UaZ5qsC0h6ZeM_4-32" style="edgeStyle=none;shape=connector;rounded=0;orthogonalLoop=1;jettySize=auto;html=1;dashed=1;labelBackgroundColor=default;strokeColor=default;fontFamily=Verdana;fontSize=11;fontColor=default;endArrow=classic;" edge="1" parent="_Mam1UaZ5qsC0h6ZeM_4-1" source="_Mam1UaZ5qsC0h6ZeM_4-36" target="_Mam1UaZ5qsC0h6ZeM_4-53">
          <mxGeometry relative="1" as="geometry" />
        </mxCell>
        <mxCell id="_Mam1UaZ5qsC0h6ZeM_4-33" value="&amp;lt;&amp;lt;extend&amp;gt;&amp;gt;" style="edgeLabel;html=1;align=center;verticalAlign=middle;resizable=0;points=[];fontSize=9;fontFamily=Verdana;fontColor=default;" vertex="1" connectable="0" parent="_Mam1UaZ5qsC0h6ZeM_4-32">
          <mxGeometry x="-0.4104" y="-2" relative="1" as="geometry">
            <mxPoint x="19" y="-9" as="offset" />
          </mxGeometry>
        </mxCell>
        <mxCell id="_Mam1UaZ5qsC0h6ZeM_4-34" style="edgeStyle=none;shape=connector;rounded=0;orthogonalLoop=1;jettySize=auto;html=1;dashed=1;labelBackgroundColor=default;strokeColor=default;fontFamily=Verdana;fontSize=11;fontColor=default;endArrow=classic;" edge="1" parent="_Mam1UaZ5qsC0h6ZeM_4-1" source="_Mam1UaZ5qsC0h6ZeM_4-36" target="_Mam1UaZ5qsC0h6ZeM_4-5">
          <mxGeometry relative="1" as="geometry" />
        </mxCell>
        <mxCell id="_Mam1UaZ5qsC0h6ZeM_4-35" value="&amp;lt;&amp;lt;include&amp;gt;&amp;gt;" style="edgeLabel;html=1;align=center;verticalAlign=middle;resizable=0;points=[];fontSize=9;fontFamily=Verdana;fontColor=default;" vertex="1" connectable="0" parent="_Mam1UaZ5qsC0h6ZeM_4-34">
          <mxGeometry x="0.3686" y="1" relative="1" as="geometry">
            <mxPoint x="-32" y="-40" as="offset" />
          </mxGeometry>
        </mxCell>
        <mxCell id="_Mam1UaZ5qsC0h6ZeM_4-36" value="Manage Profile" style="ellipse;whiteSpace=wrap;html=1;fontFamily=Verdana;" vertex="1" parent="_Mam1UaZ5qsC0h6ZeM_4-1">
          <mxGeometry x="130" y="160" width="140" height="70" as="geometry" />
        </mxCell>
        <mxCell id="_Mam1UaZ5qsC0h6ZeM_4-37" style="edgeStyle=none;shape=connector;rounded=0;orthogonalLoop=1;jettySize=auto;html=1;dashed=1;labelBackgroundColor=default;strokeColor=default;fontFamily=Verdana;fontSize=11;fontColor=default;endArrow=classic;" edge="1" parent="_Mam1UaZ5qsC0h6ZeM_4-1" source="_Mam1UaZ5qsC0h6ZeM_4-39" target="_Mam1UaZ5qsC0h6ZeM_4-5">
          <mxGeometry relative="1" as="geometry" />
        </mxCell>
        <mxCell id="_Mam1UaZ5qsC0h6ZeM_4-38" value="&amp;lt;&amp;lt;include&amp;gt;&amp;gt;" style="edgeLabel;html=1;align=center;verticalAlign=middle;resizable=0;points=[];fontSize=9;fontFamily=Verdana;fontColor=default;" vertex="1" connectable="0" parent="_Mam1UaZ5qsC0h6ZeM_4-37">
          <mxGeometry x="-0.4234" y="-3" relative="1" as="geometry">
            <mxPoint x="14" y="-6" as="offset" />
          </mxGeometry>
        </mxCell>
        <mxCell id="_Mam1UaZ5qsC0h6ZeM_4-39" value="Register Job" style="ellipse;whiteSpace=wrap;html=1;fontFamily=Verdana;" vertex="1" parent="_Mam1UaZ5qsC0h6ZeM_4-1">
          <mxGeometry x="130" y="385" width="140" height="70" as="geometry" />
        </mxCell>
        <mxCell id="_Mam1UaZ5qsC0h6ZeM_4-40" style="edgeStyle=none;shape=connector;rounded=0;orthogonalLoop=1;jettySize=auto;html=1;dashed=1;labelBackgroundColor=default;strokeColor=default;fontFamily=Verdana;fontSize=11;fontColor=default;endArrow=classic;" edge="1" parent="_Mam1UaZ5qsC0h6ZeM_4-1" source="_Mam1UaZ5qsC0h6ZeM_4-42" target="_Mam1UaZ5qsC0h6ZeM_4-5">
          <mxGeometry relative="1" as="geometry" />
        </mxCell>
        <mxCell id="_Mam1UaZ5qsC0h6ZeM_4-41" value="&amp;lt;&amp;lt;include&amp;gt;&amp;gt;" style="edgeLabel;html=1;align=center;verticalAlign=middle;resizable=0;points=[];fontSize=9;fontFamily=Verdana;fontColor=default;" vertex="1" connectable="0" parent="_Mam1UaZ5qsC0h6ZeM_4-40">
          <mxGeometry x="-0.4416" y="-3" relative="1" as="geometry">
            <mxPoint x="10" as="offset" />
          </mxGeometry>
        </mxCell>
        <mxCell id="_Mam1UaZ5qsC0h6ZeM_4-42" value="Search Job" style="ellipse;whiteSpace=wrap;html=1;fontFamily=Verdana;" vertex="1" parent="_Mam1UaZ5qsC0h6ZeM_4-1">
          <mxGeometry x="130" y="280" width="140" height="70" as="geometry" />
        </mxCell>
        <mxCell id="_Mam1UaZ5qsC0h6ZeM_4-43" value="Change Registrant Status" style="ellipse;whiteSpace=wrap;html=1;fontFamily=Verdana;" vertex="1" parent="_Mam1UaZ5qsC0h6ZeM_4-1">
          <mxGeometry x="530" y="590" width="140" height="60" as="geometry" />
        </mxCell>
        <mxCell id="_Mam1UaZ5qsC0h6ZeM_4-44" value="See Registrant Profile" style="ellipse;whiteSpace=wrap;html=1;fontFamily=Verdana;" vertex="1" parent="_Mam1UaZ5qsC0h6ZeM_4-1">
          <mxGeometry x="410" y="540" width="140" height="60" as="geometry" />
        </mxCell>
        <mxCell id="_Mam1UaZ5qsC0h6ZeM_4-45" value="Download Registrant Document" style="ellipse;whiteSpace=wrap;html=1;fontFamily=Verdana;" vertex="1" parent="_Mam1UaZ5qsC0h6ZeM_4-1">
          <mxGeometry x="298.75" y="490" width="140" height="60" as="geometry" />
        </mxCell>
        <mxCell id="_Mam1UaZ5qsC0h6ZeM_4-49" value="Delete Job" style="ellipse;whiteSpace=wrap;html=1;fontFamily=Verdana;" vertex="1" parent="_Mam1UaZ5qsC0h6ZeM_4-1">
          <mxGeometry x="560" y="390" width="90" height="40" as="geometry" />
        </mxCell>
        <mxCell id="_Mam1UaZ5qsC0h6ZeM_4-50" value="Update Job" style="ellipse;whiteSpace=wrap;html=1;fontFamily=Verdana;" vertex="1" parent="_Mam1UaZ5qsC0h6ZeM_4-1">
          <mxGeometry x="490" y="360" width="90" height="40" as="geometry" />
        </mxCell>
        <mxCell id="_Mam1UaZ5qsC0h6ZeM_4-51" value="Create Job" style="ellipse;whiteSpace=wrap;html=1;fontFamily=Verdana;" vertex="1" parent="_Mam1UaZ5qsC0h6ZeM_4-1">
          <mxGeometry x="635" y="415" width="90" height="40" as="geometry" />
        </mxCell>
        <mxCell id="_Mam1UaZ5qsC0h6ZeM_4-52" value="Update Profile" style="ellipse;whiteSpace=wrap;html=1;fontFamily=Verdana;" vertex="1" parent="_Mam1UaZ5qsC0h6ZeM_4-1">
          <mxGeometry x="286" y="70" width="108.75" height="50" as="geometry" />
        </mxCell>
        <mxCell id="_Mam1UaZ5qsC0h6ZeM_4-53" value="Upload Document" style="ellipse;whiteSpace=wrap;html=1;labelBackgroundColor=default;fontFamily=Verdana;fontSize=11;fontColor=default;fillColor=none;gradientColor=none;" vertex="1" parent="_Mam1UaZ5qsC0h6ZeM_4-1">
          <mxGeometry x="360" y="130" width="111.25" height="50" as="geometry" />
        </mxCell>
        <mxCell id="_Mam1UaZ5qsC0h6ZeM_4-54" value="Update Profile" style="ellipse;whiteSpace=wrap;html=1;fontFamily=Verdana;" vertex="1" parent="_Mam1UaZ5qsC0h6ZeM_4-1">
          <mxGeometry x="481.25" y="70" width="108.75" height="50" as="geometry" />
        </mxCell>
        <mxCell id="_Mam1UaZ5qsC0h6ZeM_4-55" style="edgeStyle=none;shape=connector;rounded=0;orthogonalLoop=1;jettySize=auto;html=1;labelBackgroundColor=default;strokeColor=default;fontFamily=Helvetica;fontSize=11;fontColor=default;endArrow=none;endFill=0;" edge="1" parent="_Mam1UaZ5qsC0h6ZeM_4-1" source="_Mam1UaZ5qsC0h6ZeM_4-59" target="_Mam1UaZ5qsC0h6ZeM_4-42">
          <mxGeometry relative="1" as="geometry" />
        </mxCell>
        <mxCell id="_Mam1UaZ5qsC0h6ZeM_4-56" style="edgeStyle=none;shape=connector;rounded=0;orthogonalLoop=1;jettySize=auto;html=1;labelBackgroundColor=default;strokeColor=default;fontFamily=Helvetica;fontSize=11;fontColor=default;endArrow=none;endFill=0;" edge="1" parent="_Mam1UaZ5qsC0h6ZeM_4-1" source="_Mam1UaZ5qsC0h6ZeM_4-59" target="_Mam1UaZ5qsC0h6ZeM_4-36">
          <mxGeometry relative="1" as="geometry" />
        </mxCell>
        <mxCell id="_Mam1UaZ5qsC0h6ZeM_4-57" style="edgeStyle=none;shape=connector;rounded=0;orthogonalLoop=1;jettySize=auto;html=1;labelBackgroundColor=default;strokeColor=default;fontFamily=Helvetica;fontSize=11;fontColor=default;endArrow=none;endFill=0;" edge="1" parent="_Mam1UaZ5qsC0h6ZeM_4-1" source="_Mam1UaZ5qsC0h6ZeM_4-59" target="_Mam1UaZ5qsC0h6ZeM_4-39">
          <mxGeometry relative="1" as="geometry" />
        </mxCell>
        <mxCell id="_Mam1UaZ5qsC0h6ZeM_4-59" value="Individual" style="shape=umlActor;verticalLabelPosition=bottom;verticalAlign=top;html=1;labelBackgroundColor=default;fontFamily=Helvetica;fontSize=11;fontColor=default;fillColor=none;gradientColor=none;" vertex="1" parent="_Mam1UaZ5qsC0h6ZeM_4-1">
          <mxGeometry x="30" y="340" width="30" height="60" as="geometry" />
        </mxCell>
        <mxCell id="_Mam1UaZ5qsC0h6ZeM_4-60" style="edgeStyle=none;shape=connector;rounded=0;orthogonalLoop=1;jettySize=auto;html=1;labelBackgroundColor=default;strokeColor=default;fontFamily=Helvetica;fontSize=11;fontColor=default;endArrow=none;endFill=0;" edge="1" parent="_Mam1UaZ5qsC0h6ZeM_4-1" source="_Mam1UaZ5qsC0h6ZeM_4-63" target="_Mam1UaZ5qsC0h6ZeM_4-29">
          <mxGeometry relative="1" as="geometry" />
        </mxCell>
        <mxCell id="_Mam1UaZ5qsC0h6ZeM_4-61" style="edgeStyle=none;shape=connector;rounded=0;orthogonalLoop=1;jettySize=auto;html=1;labelBackgroundColor=default;strokeColor=default;fontFamily=Helvetica;fontSize=11;fontColor=default;endArrow=none;endFill=0;" edge="1" parent="_Mam1UaZ5qsC0h6ZeM_4-1" source="_Mam1UaZ5qsC0h6ZeM_4-63" target="_Mam1UaZ5qsC0h6ZeM_4-15">
          <mxGeometry relative="1" as="geometry" />
        </mxCell>
        <mxCell id="_Mam1UaZ5qsC0h6ZeM_4-62" style="edgeStyle=none;shape=connector;rounded=0;orthogonalLoop=1;jettySize=auto;html=1;labelBackgroundColor=default;strokeColor=default;fontFamily=Helvetica;fontSize=11;fontColor=default;endArrow=none;endFill=0;" edge="1" parent="_Mam1UaZ5qsC0h6ZeM_4-1" source="_Mam1UaZ5qsC0h6ZeM_4-63" target="_Mam1UaZ5qsC0h6ZeM_4-24">
          <mxGeometry relative="1" as="geometry" />
        </mxCell>
        <mxCell id="_Mam1UaZ5qsC0h6ZeM_4-63" value="Organization" style="shape=umlActor;verticalLabelPosition=bottom;verticalAlign=top;html=1;labelBackgroundColor=default;fontFamily=Helvetica;fontSize=11;fontColor=default;fillColor=none;gradientColor=none;" vertex="1" parent="_Mam1UaZ5qsC0h6ZeM_4-1">
          <mxGeometry x="790" y="335" width="30" height="60" as="geometry" />
        </mxCell>
      </root>
    </mxGraphModel>
  </diagram>
</mxfile>
